<?xml version="1.0" encoding="utf-8"?>
<!-- Generator: Adobe Illustrator 22.0.0, SVG Export Plug-In . SVG Version: 6.00 Build 0)  -->
<svg version="1.1" id="Layer_1" xmlns="http://www.w3.org/2000/svg" xmlns:xlink="http://www.w3.org/1999/xlink" x="0px" y="0px"
	 viewBox="0 0 400 792" style="enable-background:new 0 0 400 792;" xml:space="preserve">
<style type="text/css">
	.st0{fill:#FFFFFF;}
</style>
<path class="st0" d="M228.4,347c-9.1,0-17.8,0.2-26.5-0.1c-2.5-0.1-6.3-1.5-7-3.2c-1.1-2.7-0.8-8.8,0.2-9.1
	c13.1-4.2,18.7-15.9,26.5-25.5c6.4-7.9,5.6-17,6.2-26c1.1-17.9,3.9-35.9,2.6-53.7c-1.6-23-15.5-40-34.4-52.6
	c-18-12-37.7-19.8-58.7-24.8c-5.3-1.3-9-0.7-12.9,3.2c-3.9,3.9-8.8,6.9-13.1,10.5c-15.7,12.9-32.2,12.6-49.2,2.9
	c-11.9-6.8-23.9-13.5-35.6-20.7c-3.1-2-6-5.4-7.5-8.8c-4-9.3-7.1-19-10.7-28.8c10.1-12.9,20.3-25.8,31.3-39.9
	c-3.8-2.4-7.3-4.5-10.7-6.9c-9.2-6.3-10.1-13.8-1.3-20.8c9.4-7.5,19.9-13.7,29.9-20.3c8.3-5.5,16.5-11,25-16c2.4-1.4,6-2.1,8.7-1.5
	c56.2,12.3,111.5,27.7,165.1,48.7c23.1,9,45.8,18.9,68.6,28.7c2.9,1.2,5.8,4.2,7.1,7c18.6,41.7,33.3,84.7,37.2,130.6
	c1.4,16.3,8.6,30.7,13.2,45.9c6.8,22.3,6.5,44.8,0.3,67.4c-1.2,4.5-1.5,9.4-1.3,14.2c1.9,57.4,3.9,114.7,5.8,172.1
	c2.2,64.9,4.4,129.8,6.6,194.7c0.6,17.5-2.1,34.1-11.5,49.3c-11.5,18.6-36,29.3-56.2,23.2c-16-4.8-24.1-18.1-30.9-32
	c-8.7-17.8-11.1-37.3-14.5-56.6c-4.8-26.9-9.6-53.8-14.1-80.7c-4.7-28.2-9.2-56.5-13.6-84.8c-4.8-31.2-9.9-62.3-14.1-93.6
	c-3.9-29.2-6.8-58.5-10.2-87.7C228.7,349.6,228.6,348.4,228.4,347z M44.1,69.7c-6.2,8-11.5,16.5-18.5,23.3
	c-11,10.9-16.1,21.8-6.4,36.1c3.6,5.3,5.2,13,9.9,16.5c11.1,8,23.4,14.3,35.4,20.8c14.5,7.8,29.1,8.7,42.9-1.9
	c5.7-4.4,11.1-9.3,16.9-13.5c2.4-1.7,5.9-3.4,8.4-2.9c28.2,5.7,54.9,15.4,76.6,35.1c18.2,16.6,28.3,37.4,25.2,62.3
	c-4.5,36.1-6,72.3-2.1,108.5c4,37.8,9,75.5,14.3,113.1c6,42.5,12.6,84.9,19.4,127.3c6,37,12.2,73.9,19.4,110.7
	c3.4,17.2,7.5,34.7,14.6,50.6c17.2,38.4,48.2,35,71.6,15.1c13.2-11.1,17.8-26.8,18.4-43.1c0.7-19-0.4-38.1-1-57.1
	c-1.3-43.8-2.6-87.5-4.2-131.3c-1.9-54.4-4.1-108.8-6.1-163.3c-0.3-8.6,0-17.2,0-25.8c-0.8-0.1-1.6-0.1-2.5-0.2
	c-1.8,3-3.5,5.9-5.3,8.9c-8.7,14-22.2,20-36.9,16c-10.2-2.7-16.6-10.5-21.9-18.9c-19.6-31.2-21.2-86.8,5.3-119.8
	c8.2-10.2,19.1-15.9,32.4-12c6.1,1.8,11.5,6,18.3,9.7c-1.7-10.7-3.8-20.9-4.9-31.2c-4.2-38.9-18.8-74.6-33.8-110
	c-1.1-2.6-4.6-5.3-7.3-5.8C241.2,73.1,164.5,45.8,90.8,9.6c-2.4-1.2-6.7-0.6-9,0.9C67.8,19,54.2,28.1,40.5,37
	c-4,2.6-8.3,5.1-11.8,8.4c-4.4,4.1-6.4,8.8,0.1,13.2C33.7,61.9,38.4,65.5,44.1,69.7z M384.5,304.7c-0.3-28.9-6.2-49.3-17.9-64.4
	c-14.2-18.3-35.8-16.6-48.1,2.8c-10.1,16-14.4,33.3-15,51.7c-0.8,24,2.8,47.2,18.6,66.6c12,14.7,29.8,14.6,42.3,0.6
	C380,344.8,383.1,323.6,384.5,304.7z M105,11.7c66.3,33.1,135.6,56.9,208.7,69.5C247,49.5,176.9,27.8,105,11.7z M227.3,309.4
	c-10.3,10.7-19.7,20.5-29.4,30.6c3.8,6.2,15,5.4,29.4,2C227.3,331.3,227.3,320.7,227.3,309.4z"/>
<path class="st0" d="M248.3,409.2c-0.2-13.1,6.1-16.9,16-11.7c8.8,4.5,14,11.5,15.2,21.2c3,24.1,6.6,48.3,8.4,72.5
	c0.5,6.6-3.7,14.2-7.4,20.3c-1.5,2.5-8.5,4.3-11,2.9c-4.1-2.4-8.6-7.3-9.3-11.7c-3.6-22.7-6-45.6-8.8-68.4
	C250.4,425.4,249.2,416.3,248.3,409.2z M251.5,408c0.2,1.4,0.4,3.5,0.7,5.7c2.4,19.1,4.8,38.1,7.3,57.2c1.4,10.8,2.6,21.8,4.9,32.4
	c0.7,3.4,4.7,7.5,7.9,8.3c2.4,0.6,7.2-2.9,8.8-5.8c2.4-4.2,4.3-9.7,3.9-14.3c-2.2-23.4-5-46.7-8.1-70c-1.2-9-5.1-16.9-13.8-21.3
	C255.4,396.2,251.3,398.8,251.5,408z"/>
<path class="st0" d="M363.8,426.1c-0.6,10-5.3,17.5-11.9,18.2c-7.1,0.7-14.1-7-14.9-16.9c-0.3-3.4-0.4-7.5,1.2-10.2
	c2.4-4,6.2-9.7,9.6-9.8c4.2-0.2,9.5,3.8,12.8,7.4C362.9,417.4,362.8,422.2,363.8,426.1z M359.7,429c0.2-11.8-4.5-19.3-10.5-19.2
	c-5.6,0.2-9.7,7.5-9.2,16.6c0.4,8,5.8,15.6,11.1,14.4C358.6,439.2,359.4,432.7,359.7,429z"/>
<path class="st0" d="M345.5,187.7c0,12.1-5.1,16.3-13.4,15.5c-6.1-0.6-12.2-8.1-13.6-16.7c-1.3-8.2,2.2-17.3,7.8-19.5
	c6.4-2.6,11.4,0.9,14.4,5.6C343.6,177,344.9,182,345.5,187.7z M342.2,187.6c0.1-7.4-2.1-13.8-9-17.3c-2-1-6.3-0.3-7.8,1.2
	c-5.3,5.4-4.2,12.1-1.9,18.6c2,5.5,4.7,10.8,11.6,9.9C342.1,199.1,342.1,193.1,342.2,187.6z"/>
</svg>
